<svg xmlns="http://www.w3.org/2000/svg" viewBox="0 0 190.57 208.11"><defs><style>.cls-1{fill:#914db6;}</style></defs><title>bangaluru</title><g id="Layer_2" data-name="Layer 2"><g id="Layer_2-2" data-name="Layer 2"><path class="cls-1" d="M166.62,175.92A95.23,95.23,0,0,0,107.27,18.29a29.23,29.23,0,0,0-24,0A95.28,95.28,0,1,0,166.57,176h.05ZM12,152.49H178.6A92.63,92.63,0,0,1,165.21,173H25.36A92.63,92.63,0,0,1,12,152.49ZM70.42,36.39h49.73a25.87,25.87,0,0,1,1.39,6.77H69A25.87,25.87,0,0,1,70.42,36.39Zm51.2,12H69V46.16h52.67ZM69,51.39h52.67v12.7H69Zm71.17,15.7v1.77H50.45V67.09ZM50.45,71.86h89.67V88H50.45ZM153.12,91v2.42H37.45V91ZM37.45,96.44H153.12v18.79H37.45Zm132.17,21.79v2.71H21v-2.71ZM21,123.94H169.62v19.49H21Zm160.28,22.49c-.4,1-.83,2-1.26,3.06H10.6c-.43-1-.86-2-1.26-3.06Zm6.34-33.61a91.82,91.82,0,0,1-5.23,30.61h-9.72v-28.2h-16.5V88h-13V64.09h-18.5V43.16h-.07A29.28,29.28,0,0,0,114,22.45,92.36,92.36,0,0,1,187.57,112.82ZM118.89,33.39H71.68a26.33,26.33,0,0,1,47.21,0ZM76.61,22.45A29.28,29.28,0,0,0,66,43.16H66V64.09H47.45V88h-13v27.21H18v28.2H8.23a92.26,92.26,0,0,1,68.38-121ZM46.88,191.36h96.81a92.08,92.08,0,0,1-96.81,0Zm101.35-3H42.34A92.63,92.63,0,0,1,28.06,176H162.51A92.63,92.63,0,0,1,148.23,188.36Z"/><path class="cls-1" d="M89,13.48h12.67a1.5,1.5,0,0,0,0-3H89a1.5,1.5,0,0,0,0,3Z"/><path class="cls-1" d="M91,8.24h8.67a1.5,1.5,0,0,0,0-3H91a1.5,1.5,0,0,0,0,3Z"/><path class="cls-1" d="M92.45,3h5.67a1.5,1.5,0,0,0,0-3H92.45a1.5,1.5,0,0,0,0,3Z"/><rect class="cls-1" x="21.95" y="160" width="7" height="3"/><rect class="cls-1" x="161.95" y="160" width="7" height="3"/><rect class="cls-1" x="41.95" y="160" width="7" height="3"/><rect class="cls-1" x="121.95" y="160" width="7" height="3"/><rect class="cls-1" x="101.95" y="160" width="7" height="3"/><rect class="cls-1" x="61.95" y="160" width="7" height="3"/><rect class="cls-1" x="81.95" y="160" width="7" height="3"/><rect class="cls-1" x="141.95" y="160" width="7" height="3"/><rect class="cls-1" x="68.93" y="131.36" width="7" height="3"/><rect class="cls-1" x="48.93" y="131.36" width="7" height="3"/><rect class="cls-1" x="88.93" y="131.36" width="7" height="3"/><rect class="cls-1" x="28.93" y="131.36" width="7" height="3"/><rect class="cls-1" x="148.93" y="131.36" width="7" height="3"/><rect class="cls-1" x="128.93" y="131.36" width="7" height="3"/><rect class="cls-1" x="108.93" y="131.36" width="7" height="3"/><rect class="cls-1" x="102.59" y="103.55" width="7" height="3"/><rect class="cls-1" x="142.59" y="103.55" width="5.67" height="3"/><rect class="cls-1" x="122.59" y="103.55" width="7" height="3"/><rect class="cls-1" x="82.59" y="103.55" width="7" height="3"/><rect class="cls-1" x="42.59" y="103.55" width="7" height="3"/><rect class="cls-1" x="62.59" y="103.55" width="7" height="3"/><rect class="cls-1" x="61.83" y="78.44" width="7" height="3"/><rect class="cls-1" x="81.83" y="78.44" width="7" height="3"/><rect class="cls-1" x="121.83" y="78.44" width="7" height="3"/><rect class="cls-1" x="101.83" y="78.44" width="7" height="3"/><rect class="cls-1" x="73.17" y="56.74" width="7" height="3"/><rect class="cls-1" x="113.17" y="56.74" width="5" height="3"/><rect class="cls-1" x="93.17" y="56.74" width="7" height="3"/></g></g></svg>