<svg xmlns="http://www.w3.org/2000/svg" viewBox="0 0 190.57 209.09"><defs><style>.cls-1{fill:#914db6;}</style></defs><title>delhi</title><g id="Layer_2" data-name="Layer 2"><g id="Layer_2-2" data-name="Layer 2"><path class="cls-1" d="M102.74,18.82V9H98.22V1.5a1.5,1.5,0,0,0-3,0V9H89.83V18.7a95.17,95.17,0,1,0,12.91.12Zm84.83,95a91.76,91.76,0,0,1-7.91,37.36V129.69h-6.42c-.66-19.36-13.73-23.21-22.58-23.58V96.75a1.5,1.5,0,0,0-3,0v9.37c-8.2.34-14.26,3.51-18,9.46a28.83,28.83,0,0,0-4,14.11h-7v36.16h-4.6l-2.13-30.06h3l2.84-10.12h-6.59l-2-27.9H113l2.84-10.12h-7.29l-1.85-26.09H111l2.84-10.13h-7.86l-1.28-18.16a1.51,1.51,0,0,0-.16-.56h4.39l3-8.81h-9.18V21.84A92.39,92.39,0,0,1,187.57,113.81Zm-38.41-4.73c9.35,0,20.45,3.63,21.08,20.61H128.7C129.37,111.81,141.71,109.08,149.16,109.08Zm22.71,56.08h-2.65V146.64h2.65Zm-43.38,0h-2.65V146.64h2.65Zm26.64,0h-13V141l5.35-4.29a1.82,1.82,0,0,1,2.27,0l5.36,4.29Zm3,0v-25.6l-6.48-5.19a4.8,4.8,0,0,0-6,0l-6.47,5.19v25.6h-3.48V132.69h26.49v32.47Zm-25.46-32.47v32.47h-1.18V143.64h-8.65v21.52h-1.18V132.69Zm33.55,10.95v21.52h-1.06V132.69h11.5V157.3c-.58,1.07-1.17,2.13-1.79,3.18V143.64ZM81.44,165.85l2.09-30.06h6.38l-.56,30.06ZM107.72,26.9l-1,2.81H85.9l-1-2.81ZM90.25,39.38h11.83l.35,4.87H89.91Zm11.57-6.67a1.53,1.53,0,0,0-.16.77l.21,2.9H90.46l.2-2.9a1.53,1.53,0,0,0-.16-.77ZM89.7,47.25h12.94l.3,4.18H89.41Zm20.14,7.18-1.16,4.13H84l-1.15-4.13ZM98,61.56l.57,26.09H93.81l.48-26.09Zm3.57,26.09L101,61.56h2.67l1.84,26.09ZM91.29,61.56l-.48,26.09H86.88L88.7,61.56Zm20.55,29.09-1.16,4.12H82l-1.15-4.12Zm-13,7.12.61,27.9H93.1l.52-27.9Zm3.62,27.9-.62-27.9h4.43l2,27.9ZM90.62,97.77l-.52,27.9H84.23l2-27.9Zm23.22,30.9-1.16,4.12H80l-1.15-4.12Zm-20.93,7.12h6.72l.66,30.06H92.35Zm10.38,30.06-.66-30.06h6.29l2.13,30.06ZM99.74,12V23.9H92.83V12Zm-71,37.88A91.84,91.84,0,0,1,89.83,21.7v2.2H80.72l3,8.81h4.06a1.51,1.51,0,0,0-.16.56L86.4,51.43H78.85l2.84,10.13h4L83.88,87.65h-7l2.84,10.12h3.48l-1.94,27.9H74.85l2.84,10.12h2.83l-2.09,30.06H19.12a92.2,92.2,0,0,1,9.64-116ZM95.29,206.09a92.2,92.2,0,0,1-74-37.24H169.31A92.19,92.19,0,0,1,95.29,206.09Z"/><rect class="cls-1" x="33.33" y="67.14" width="32.5" height="3"/><rect class="cls-1" x="40.33" y="55.95" width="25.5" height="3"/></g></g></svg>