<svg xmlns="http://www.w3.org/2000/svg" viewBox="0 0 190.57 190.57"><defs><style>.cls-1{fill:#914db6;}</style></defs><title>noida</title><g id="Layer_2" data-name="Layer 2"><g id="Layer_2-2" data-name="Layer 2"><path class="cls-1" d="M95.29,190.57a95.29,95.29,0,1,1,95.28-95.28A95.39,95.39,0,0,1,95.29,190.57ZM95.29,3a92.29,92.29,0,1,0,92.28,92.29A92.39,92.39,0,0,0,95.29,3Z"/><path class="cls-1" d="M153.88,168.72a10,10,0,0,1,1.73-2.21H34.36a10.12,10.12,0,0,1,2.28,3H152.3A9.32,9.32,0,0,1,153.88,168.72Z"/><path class="cls-1" d="M21.87,153.51a10.16,10.16,0,0,1,2,3H166.28a9.73,9.73,0,0,1,3.21-3Z"/><path class="cls-1" d="M21.87,153.51a10.16,10.16,0,0,1,2,3H166.28a9.73,9.73,0,0,1,3.21-3Z"/><path class="cls-1" d="M182.37,131H8.26a11.67,11.67,0,0,1,1.19,3H181.31a10.91,10.91,0,0,1,.82-2A8.56,8.56,0,0,1,182.37,131Z"/><path class="cls-1" d="M145.25,134h-100V76.56h100Zm-97-3h94V79.56h-94Z"/><path class="cls-1" d="M155.33,79.56H35.17l5-15H150.34Zm-116-3H151.17l-3-9H42.34Z"/><path class="cls-1" d="M73,134H65V76.56h8Zm-5-3h2V79.56H68Z"/><path class="cls-1" d="M125.38,134h-8V76.56h8Zm-5-3h2V79.56h-2Z"/><path class="cls-1" d="M1.22,84.17a11.3,11.3,0,0,1-.09,1.17,14.27,14.27,0,0,1,.31,1.83H45.22v3.67h-44c-.05.2-.12.39-.17.59a13,13,0,0,1-.47,2.41H48.22V84.17Z"/><path class="cls-1" d="M189.74,90.84H145.22V87.17h43.45a12.52,12.52,0,0,1-.18-3H142.22v9.67h47.55c0-.15.06-.3.09-.45A12.79,12.79,0,0,1,189.74,90.84Z"/><path class="cls-1" d="M140,66.08l-3-.16c0-.76.07-1.53.07-2.31a41.78,41.78,0,0,0-83.55,0q0,1.17.06,2.31l-3,.16c0-.81-.06-1.64-.06-2.47a44.78,44.78,0,0,1,89.55,0C140,64.44,140,65.27,140,66.08Z"/><polygon class="cls-1" points="105.23 21.06 102.23 21.06 102.23 14.63 88.27 14.63 88.27 21.06 85.27 21.06 85.27 11.63 105.23 11.63 105.23 21.06"/><path class="cls-1" d="M74.17,66.34l-2.92-.67a24.63,24.63,0,0,1,48,0l-2.92.68a21.64,21.64,0,0,0-42.16,0Z"/><polygon class="cls-1" points="100.78 48.47 98.78 48.47 98.78 45.23 91.72 45.23 91.72 48.47 89.72 48.47 89.72 43.23 100.78 43.23 100.78 48.47"/><path class="cls-1" d="M13.86,62A21.41,21.41,0,0,0,6.2,63.42c-.13.3-.28.6-.44.89A12.48,12.48,0,0,1,5.44,67,18.5,18.5,0,0,1,32.38,83.5c0,.35,0,.69,0,1l3,.16c0-.39,0-.79,0-1.19A21.54,21.54,0,0,0,13.86,62Z"/><polygon class="cls-1" points="18.78 63.82 16.78 63.82 16.78 61.15 10.94 61.15 10.94 63.82 8.94 63.82 8.94 59.15 18.78 59.15 18.78 63.82"/><path class="cls-1" d="M183.54,63.16A21.48,21.48,0,0,0,155.07,83.5c0,.4,0,.8,0,1.19l3-.17c0-.33,0-.68,0-1a18.49,18.49,0,0,1,27-16.45A11.74,11.74,0,0,1,183.54,63.16Z"/><polygon class="cls-1" points="181.51 63.82 179.51 63.82 179.51 61.15 173.66 61.15 173.66 63.82 171.66 63.82 171.66 59.15 181.51 59.15 181.51 63.82"/><rect class="cls-1" x="80.59" y="132.51" width="3" height="22.5"/><path class="cls-1" d="M56.22,151.51a1.5,1.5,0,0,1-1.5-1.5v-17.5a1.5,1.5,0,0,1,3,0V150A1.5,1.5,0,0,1,56.22,151.51Z"/><path class="cls-1" d="M37.09,151.51a1.5,1.5,0,0,1-1.5-1.5v-17.5a1.5,1.5,0,0,1,3,0V150A1.5,1.5,0,0,1,37.09,151.51Z"/><rect class="cls-1" x="106.91" y="132.51" width="3" height="22.5"/><path class="cls-1" d="M134.28,151.51a1.5,1.5,0,0,1-1.5-1.5v-17.5a1.5,1.5,0,0,1,3,0V150A1.5,1.5,0,0,1,134.28,151.51Z"/><path class="cls-1" d="M153.41,151.51a1.51,1.51,0,0,1-1.5-1.5v-17.5a1.5,1.5,0,0,1,3,0V150A1.5,1.5,0,0,1,153.41,151.51Z"/><path class="cls-1" d="M30.67,134h-20V100.17h20Zm-17-3h14V103.17h-14Z"/><path class="cls-1" d="M180.16,134h-20V100.17h20Zm-17-3h14V103.17h-14Z"/></g></g></svg>