<svg xmlns="http://www.w3.org/2000/svg" viewBox="0 0 190.57 246.29"><defs><style>.cls-1{fill:#914db6;}</style></defs><title>gurugram</title><g id="Layer_2" data-name="Layer 2"><g id="Layer_2-2" data-name="Layer 2"><path class="cls-1" d="M122.66,59.73V47.45l-5.18,2.89-.66-6.71,5.34-3.08a1.5,1.5,0,0,0-1.5-2.6l-4.16,2.41-3.85-39A1.49,1.49,0,0,0,111.13,0a1.5,1.5,0,0,0-1.47,1.42l-2.39,44.26L89.57,55.89a95.27,95.27,0,1,0,33.09,3.84ZM187.57,151a91.79,91.79,0,0,1-16,51.91H140.31V185.24H146l.42-.83a8.38,8.38,0,0,0,.9-3.81c0-3.94-3.11-16.36-8.5-16.36s-8.5,12.42-8.5,16.36a8.38,8.38,0,0,0,.9,3.81l.41.82h5.69v17.67H122.66v-140A92.67,92.67,0,0,1,187.57,151Zm-54,31.24a5.35,5.35,0,0,1-.25-1.64c0-5.24,3.65-13.36,5.5-13.36s5.5,8.12,5.5,13.36a5.35,5.35,0,0,1-.25,1.64ZM74.11,78h45.55V90.06H67.16V81.88Zm45.55,42.19H67.16V108.13h52.5Zm0,3v12.06H67.16V123.19Zm0-18.06H67.16V93.06h52.5Zm-52.5,33.12h48.32L67.16,165.68Zm0,30.88,52.5-29.8v63.58H67.16ZM119.66,75H79.48l40.18-22.44ZM111.6,21.23l3,30.71-4.83,2.69.43-8h0ZM83.28,59.52,63.91,70.7a1.5,1.5,0,0,0,.75,2.8,1.47,1.47,0,0,0,.75-.21l41.67-24-.39,7.11L64.16,80.12V202.91H19A92.21,92.21,0,0,1,83.28,59.52Zm12,183.77a92.19,92.19,0,0,1-74.13-37.38H169.41A92.18,92.18,0,0,1,95.29,243.29Z"/><rect class="cls-1" x="74.22" y="169.25" width="3" height="2"/><rect class="cls-1" x="74.22" y="177.1" width="3" height="4.68"/><rect class="cls-1" x="74.22" y="187.64" width="3" height="4.68"/><rect class="cls-1" x="74.22" y="198.17" width="3" height="2"/><rect class="cls-1" x="85.69" y="163.25" width="3" height="2"/><rect class="cls-1" x="85.69" y="188.91" width="3" height="4.11"/><rect class="cls-1" x="85.69" y="170.4" width="3" height="4.11"/><rect class="cls-1" x="85.69" y="179.65" width="3" height="4.11"/><rect class="cls-1" x="85.69" y="198.17" width="3" height="2"/><rect class="cls-1" x="97.17" y="156.25" width="3" height="2"/><rect class="cls-1" x="97.17" y="171.88" width="3" height="3.89"/><rect class="cls-1" x="97.17" y="180.64" width="3" height="3.89"/><rect class="cls-1" x="97.17" y="189.41" width="3" height="3.89"/><rect class="cls-1" x="97.17" y="163.12" width="3" height="3.89"/><rect class="cls-1" x="97.17" y="198.17" width="3" height="2"/><rect class="cls-1" x="108.65" y="150.25" width="3" height="2"/><rect class="cls-1" x="108.65" y="173.37" width="3" height="3.67"/><rect class="cls-1" x="108.65" y="156.84" width="3" height="3.67"/><rect class="cls-1" x="108.65" y="181.64" width="3" height="3.67"/><rect class="cls-1" x="108.65" y="165.11" width="3" height="3.67"/><rect class="cls-1" x="108.65" y="189.9" width="3" height="3.67"/><rect class="cls-1" x="108.65" y="198.17" width="3" height="2"/><path class="cls-1" d="M46.34,124.81a1.5,1.5,0,0,0,0-3H18.19a1.5,1.5,0,1,0,0,3Z"/><path class="cls-1" d="M28.08,115.34H56.23a1.5,1.5,0,0,0,0-3H28.08a1.5,1.5,0,0,0,0,3Z"/><path class="cls-1" d="M130.75,115.34H158.9a1.5,1.5,0,0,0,0-3H130.75a1.5,1.5,0,0,0,0,3Z"/></g></g></svg>